<svg width="161" height="122" viewBox="0 0 161 122" fill="none" xmlns="http://www.w3.org/2000/svg">
<path fill-rule="evenodd" clip-rule="evenodd" d="M144.991 42.8902H26.7963C18.4179 42.8902 8.41905 48.8629 4.45184 56.2306L1.74637 61.255C-2.53638 69.2087 1.32673 75.6886 10.3962 75.6886H150.386C155.949 75.6886 160.489 71.163 160.489 65.5804V47.9361V17.6607H150.398L144.991 42.8902Z" fill="#5EA7FF"/>
<path fill-rule="evenodd" clip-rule="evenodd" d="M24.2499 43.0638C16.4842 44.0949 8.02354 49.5974 4.45182 56.2306L3.48401 58.0279H24.2499V43.0638Z" fill="#FDCD6B"/>
<path fill-rule="evenodd" clip-rule="evenodd" d="M34.3417 50.4591H46.9564V58.0279H34.3417V50.4591Z" fill="#FDCD6B"/>
<path fill-rule="evenodd" clip-rule="evenodd" d="M54.5253 50.4591H67.14V58.0279H54.5253V50.4591Z" fill="#FDCD6B"/>
<path fill-rule="evenodd" clip-rule="evenodd" d="M74.7089 50.4591H87.3237V58.0279H74.7089V50.4591Z" fill="#FDCD6B"/>
<path fill-rule="evenodd" clip-rule="evenodd" d="M94.8925 50.4591H107.507V58.0279H94.8925V50.4591Z" fill="#FDCD6B"/>
<path fill-rule="evenodd" clip-rule="evenodd" d="M115.076 50.4591H127.691V58.0279H115.076V50.4591Z" fill="#FDCD6B"/>
<path fill-rule="evenodd" clip-rule="evenodd" d="M135.26 50.4591H147.875V58.0279H135.26V50.4591Z" fill="#FDCD6B"/>
<path fill-rule="evenodd" clip-rule="evenodd" d="M59.5712 0H74.7089V42.8902H44.4335L59.5712 0Z" fill="#5B68C0"/>
<path fill-rule="evenodd" clip-rule="evenodd" d="M59.5712 121.102H74.7089V63.0738H44.4335L59.5712 121.102Z" fill="#5B68C0"/>
<path d="M92.3696 2.52295H115.076M117.599 12.6148H130.214M94.8926 88.3034H107.507M117.599 100.918H135.26" stroke="#FFDD95" stroke-width="5.04591" stroke-linecap="square"/>
</svg>
