<svg width="83" height="81" viewBox="0 0 83 81" fill="none" xmlns="http://www.w3.org/2000/svg">
<path d="M70.55 8.04893H62.25V4.02447C62.25 2.95711 61.8128 1.93347 61.0345 1.17874C60.2562 0.424005 59.2006 0 58.1 0C56.9994 0 55.9438 0.424005 55.1655 1.17874C54.3872 1.93347 53.95 2.95711 53.95 4.02447V8.04893H29.05V4.02447C29.05 2.95711 28.6128 1.93347 27.8345 1.17874C27.0562 0.424005 26.0006 0 24.9 0C23.7994 0 22.7438 0.424005 21.9655 1.17874C21.1872 1.93347 20.75 2.95711 20.75 4.02447V8.04893H12.45C9.14806 8.04893 5.98135 9.32095 3.64652 11.5852C1.31169 13.8494 0 16.9203 0 20.1223V68.4159C0 71.618 1.31169 74.6889 3.64652 76.9531C5.98135 79.2173 9.14806 80.4893 12.45 80.4893H70.55C73.8519 80.4893 77.0187 79.2173 79.3535 76.9531C81.6883 74.6889 83 71.618 83 68.4159V20.1223C83 16.9203 81.6883 13.8494 79.3535 11.5852C77.0187 9.32095 73.8519 8.04893 70.55 8.04893ZM74.7 68.4159C74.7 69.4833 74.2628 70.5069 73.4845 71.2617C72.7062 72.0164 71.6507 72.4404 70.55 72.4404H12.45C11.3494 72.4404 10.2938 72.0164 9.51551 71.2617C8.73723 70.5069 8.3 69.4833 8.3 68.4159V40.2447H74.7V68.4159ZM74.7 32.1957H8.3V20.1223C8.3 19.055 8.73723 18.0313 9.51551 17.2766C10.2938 16.5219 11.3494 16.0979 12.45 16.0979H20.75V20.1223C20.75 21.1897 21.1872 22.2133 21.9655 22.9681C22.7438 23.7228 23.7994 24.1468 24.9 24.1468C26.0006 24.1468 27.0562 23.7228 27.8345 22.9681C28.6128 22.2133 29.05 21.1897 29.05 20.1223V16.0979H53.95V20.1223C53.95 21.1897 54.3872 22.2133 55.1655 22.9681C55.9438 23.7228 56.9994 24.1468 58.1 24.1468C59.2006 24.1468 60.2562 23.7228 61.0345 22.9681C61.8128 22.2133 62.25 21.1897 62.25 20.1223V16.0979H70.55C71.6507 16.0979 72.7062 16.5219 73.4845 17.2766C74.2628 18.0313 74.7 19.055 74.7 20.1223V32.1957Z" fill="black"/>
</svg>
