<svg width="96" height="81" viewBox="0 0 96 81" fill="none" xmlns="http://www.w3.org/2000/svg">
<path d="M94.5939 37.0605L56.1938 1.30901C55.5225 0.684018 54.6673 0.258373 53.7363 0.0859062C52.8052 -0.0865605 51.8402 0.00189768 50.9631 0.340095C50.0861 0.678292 49.3365 1.25104 48.809 1.9859C48.2816 2.72076 48.0001 3.58473 48.0001 4.46855V20.3106C34.8879 21.4405 22.7005 27.0852 13.8227 36.14C4.94498 45.1949 0.0158809 57.0081 1.40834e-08 69.2681V75.9715C-7.63264e-05 76.8996 0.310207 77.8046 0.887774 78.5611C1.46534 79.3175 2.28154 79.8878 3.22305 80.1927C4.16457 80.4976 5.18469 80.522 6.1418 80.2626C7.0989 80.0031 7.94551 79.4727 8.56409 78.7449C13.2664 73.5383 19.036 69.2564 25.5359 66.1493C32.0358 63.0423 39.1356 61.1723 46.4204 60.6488C46.6595 60.6204 47.2595 60.5768 48.0001 60.5331V75.9715C48.0001 76.8553 48.2816 77.7193 48.809 78.4541C49.3365 79.189 50.0861 79.7617 50.9631 80.0999C51.8402 80.4381 52.8052 80.5266 53.7363 80.3541C54.6673 80.1816 55.5225 79.756 56.1938 79.131L94.5939 43.3795C95.0396 42.9647 95.3933 42.4721 95.6345 41.93C95.8758 41.3879 96 40.8068 96 40.22C96 39.6332 95.8758 39.0521 95.6345 38.51C95.3933 37.9679 95.0396 37.4753 94.5939 37.0605ZM57.6002 65.1832V55.8613C57.6003 55.2744 57.4763 54.6932 57.2351 54.1509C56.9939 53.6086 56.6404 53.1159 56.1946 52.7009C55.7489 52.2859 55.2197 51.9567 54.6372 51.7322C54.0548 51.5077 53.4305 51.3922 52.8001 51.3923C51.5767 51.3923 46.5798 51.6127 45.3048 51.7722C32.3668 52.8816 20.0514 57.458 9.84848 64.9475C11.0059 55.0905 16.0281 45.9774 23.9533 39.3533C31.8786 32.7293 42.1498 29.0598 52.8001 29.0477C53.4305 29.0478 54.0548 28.9323 54.6372 28.7078C55.2197 28.4833 55.7489 28.1541 56.1946 27.7391C56.6404 27.3241 56.9939 26.8314 57.2351 26.2891C57.4763 25.7468 57.6003 25.1657 57.6002 24.5787V15.2568L84.4127 40.22L57.6002 65.1832Z" fill="black"/>
</svg>
