<svg width="74" height="80" viewBox="0 0 74 80" fill="none" xmlns="http://www.w3.org/2000/svg">
<path d="M69.8888 24.0669L45.2223 3.05208C42.9611 1.08661 40.0338 0 37.0001 0C33.9664 0 31.0392 1.08661 28.778 3.05208L4.11147 24.0669C2.80566 25.2019 1.76363 26.5941 1.05477 28.151C0.3459 29.7079 -0.013536 31.3937 0.000389706 33.0961V68.0143C0.000389706 71.1931 1.29978 74.2417 3.61271 76.4895C5.92565 78.7372 9.06266 80 12.3336 80H61.6666C64.9376 80 68.0746 78.7372 70.3876 76.4895C72.7005 74.2417 73.9999 71.1931 73.9999 68.0143V33.0562C74.008 31.3605 73.6457 29.6824 72.937 28.1328C72.2283 26.5832 71.1894 25.1974 69.8888 24.0669ZM45.2223 72.0096H28.778V52.0335C28.778 50.9739 29.2111 49.9577 29.9821 49.2084C30.7531 48.4592 31.7987 48.0382 32.889 48.0382H41.1112C42.2015 48.0382 43.2472 48.4592 44.0182 49.2084C44.7892 49.9577 45.2223 50.9739 45.2223 52.0335V72.0096ZM65.7777 68.0143C65.7777 69.0739 65.3446 70.0901 64.5736 70.8394C63.8026 71.5886 62.7569 72.0096 61.6666 72.0096H53.4445V52.0335C53.4445 48.8547 52.1451 45.8061 49.8321 43.5583C47.5192 41.3106 44.3822 40.0478 41.1112 40.0478H32.889C29.6181 40.0478 26.4811 41.3106 24.1681 43.5583C21.8552 45.8061 20.5558 48.8547 20.5558 52.0335V72.0096H12.3336C11.2433 72.0096 10.1976 71.5886 9.42666 70.8394C8.65569 70.0901 8.22255 69.0739 8.22255 68.0143V33.0562C8.22329 32.4889 8.34833 31.9283 8.58933 31.4117C8.83034 30.895 9.1818 30.4342 9.62032 30.0598L34.2868 9.08486C35.037 8.44435 36.0015 8.09111 37.0001 8.09111C37.9987 8.09111 38.9632 8.44435 39.7134 9.08486L64.3799 30.0598C64.8185 30.4342 65.1699 30.895 65.4109 31.4117C65.6519 31.9283 65.777 32.4889 65.7777 33.0562V68.0143Z" fill="black"/>
</svg>
